<svg xmlns="http://www.w3.org/2000/svg" viewBox="0 0 512.87 298.73"><defs><style>.cls-1,.cls-2{fill:#fff;}.cls-1{fill-rule:evenodd;}.cls-2{font-size:33.1px;font-family:ArialMT, Arial;}.cls-3{letter-spacing:-0.07em;}.cls-4{letter-spacing:-0.06em;}.cls-5{letter-spacing:-0.04em;}</style></defs><g id="Layer_2" data-name="Layer 2"><g id="Layer_1-2" data-name="Layer 1"><path class="cls-1" d="M33.2,121.58C46.79,111.14,52,120.5,61,128.6c4.91,4.38,4.77,2.17,8.87,7.51-16-.43-28.79-5.79-36.71-14.53Zm58.57,11.09c4.61-11.39,7.76-17.39,10.52-33.1L63.34,110.41c2.71,9.13,5.42,9.65,12.34,14.1,5.3,3.4,9.16,6.18,16.09,8.16ZM14.62,97c1.06,8.22,3.48,9.6,8,15.19L41,108,33.77,90.33,14.62,97Zm93.2,27c2.85-12.08,6.1-15,7.44-29l16.64-4.11c-2.76,16.53-13.17,27-24.08,33.1ZM55.93,102.86c-4.46-6-6.39-9-7.18-16.44,7.24-4,43.76-15.24,52.73-16l1.11,15.75c-.06.43-.24,1.1-.29,1.45a10.26,10.26,0,0,1-.33,1.44l-46,13.77ZM27.42,62.17l1.69,18.69-18.62,5.2L8.57,67.2l18.85-5Zm106.79-1.73,1.72,19.23-18.54,4.41-3.56-18.8,20.38-4.84ZM89.17,44l-47.55,13c-.44,7-.4,11.55,3,17.7,8.27,1.24,40.79-12,52.59-13.88-1.49-7.84-3.16-11.83-8-16.77Zm33.66-10,7.11,15.58c-5.19,3.91-12.44,5.45-19.68,5.18-2.75-7.85-5-9.95-7.13-15.65l19.7-5.11ZM43.55,45.59C43,33.88,48.13,20.24,54.21,13.3c7.25,2.19,10.38,3.8,15.51,8.22s8.81,7.05,11,12.17c-7.1,4.4-28,9.76-37.13,11.9ZM12.39,55.45c2.42-14.09,14-30.44,23.52-32.18-3.79,11.87-5.38,13-7,27.37L12.39,55.45Zm83.8-25.52,15-4.26c-2.3-4.24.17-1.33-2.87-4-8.12-7.18-23.86-11.06-34.68-12l2.13,3c4.93,5.28,5.1,3.92,9.72,7.12,5.74,4,4.8,5.17,10.65,10.19Zm-38-28.3C23.69,9-6.48,42.88,1.21,86.47c6,34.31,42.4,67.54,85,58.33,34.21-7.39,66.17-41.47,56.63-85.8C135.3,23.87,101.51-7.61,58.15,1.63Z"/><path class="cls-1" d="M361.29,202.64c-5.1,16.6-14.77,19.05-33.08,15.15l0,29.11c32,10.06,57.17-5.42,65.56-29.87,5-14.45,3.7-81.53,2.81-100.35l-33.77-.18c-1.83,17.83,2.9,41.55-2.41,56.38-18.52,1.39-8.32-21-11.12-56.32h-33.4c-.84,10.94-1.42,58.94.77,67.5C322.21,205.66,338.45,210.5,361.29,202.64Z"/><path class="cls-1" d="M188.59,208.53c3.33-9.2,1.35-24.51,1.4-34.83-9.82,2.32-14.7,2.63-18.62-4.6-9.5-17.55,15.83-26.66,21.9-12.84,4,9.08.45,38.26,2.26,50.57l33.19.23c3.76-35.11,5.25-83.73-33.65-91.2C119.79,101.4,112.21,215.46,188.59,208.53Z"/><path class="cls-1" d="M466.09,208.4c3-9.42,1.18-24.28,1.24-34.68-41.38,9-9.08-44.83,3.39-17.16,3.09,6.84,1.71,40.48,1.49,50.49l34.54.23c-.82-27,4.27-55.35-9.13-75.81-9.83-15-39.48-23.25-61.57-11.08C395,143,408.34,215,466.09,208.4Z"/><path class="cls-1" d="M17.54,217.56l4,2.76A36.84,36.84,0,0,0,27,222.55l32.16,9.69-5.14,66.49c12.63-5.61,33.78-41,42.14-41.78,7.92-.78,33.52,33.94,44.43,38.38L95.24,157.09C87.26,173.55,99,220.2,17.54,217.56Z"/><path class="cls-1" d="M240.74,174.31l-.4,35.2c61.17,1.39,46.62-44.15,56.14-52.79,10.54-9.57,9.51,9.59,9.44-38.78-22.27.08-36.13,1.57-43.74,16.73-4.65,9.25-3.26,15.57-4.59,25.44C255.59,174.94,251.52,170.39,240.74,174.31Z"/><path class="cls-1" d="M57.53,199.77c30.39-11.33-8.49-37.36-10.51-13C46.29,195.7,50.63,197.13,57.53,199.77Z"/><text class="cls-2" transform="translate(161.55 284.11)">AS<tspan class="cls-3" x="44.16" y="0">Y</tspan><tspan class="cls-4" x="63.78" y="0">A</tspan><tspan x="84.04" y="0" xml:space="preserve"> SOFT</tspan><tspan class="cls-5" x="181.5" y="0">W</tspan><tspan x="211.52" y="0">ARE JSC</tspan></text></g></g></svg>